<?xml version="1.0" encoding="UTF-8"?>
<svg version="1.1" xmlns="http://www.w3.org/2000/svg" width="500" height="500">
<path d="M0 0 C1.03176634 -0.00453111 2.06353269 -0.00906223 3.12656468 -0.01373065 C6.58875021 -0.02640522 10.05077905 -0.02475228 13.51298523 -0.02310181 C15.9933238 -0.02908514 18.47366051 -0.03589024 20.95399475 -0.04345703 C26.99527157 -0.05930636 33.03648663 -0.06556629 39.0777785 -0.06668179 C43.98940057 -0.0676326 48.90100979 -0.07174454 53.81262779 -0.07808304 C67.74296296 -0.09569396 81.67326733 -0.10492218 95.60361371 -0.10342209 C96.35439479 -0.10334218 97.10517587 -0.10326227 97.87870789 -0.10317993 C98.63040743 -0.10309817 99.38210698 -0.10301641 100.1565853 -0.10293217 C112.33708516 -0.10211939 124.51746133 -0.12125549 136.69792543 -0.14945666 C149.20962847 -0.17819578 161.7212712 -0.19199639 174.23300809 -0.19026911 C181.25543166 -0.18960555 188.27772558 -0.19508299 195.3001194 -0.21662521 C201.90505935 -0.23675722 208.50977237 -0.23615279 215.11474228 -0.22159195 C217.538289 -0.21949895 219.96185273 -0.22423382 222.38537025 -0.23631287 C225.69538715 -0.25174113 229.00445673 -0.24247214 232.31445312 -0.22705078 C233.27214971 -0.23733791 234.2298463 -0.24762503 235.216564 -0.25822389 C241.86927385 -0.18979094 247.32550044 1.0877625 252.37247449 5.64391196 C257.48151755 11.31404547 258.14575572 17.24827815 258.10649109 24.59603882 C258.11174805 25.81666519 258.11174805 25.81666519 258.11711121 27.06195068 C258.12587541 29.73730127 258.12009931 32.41238502 258.11332703 35.08773804 C258.11467494 36.95288137 258.11661653 38.81802437 258.11912537 40.6831665 C258.12206921 44.58514768 258.11780181 48.48703708 258.10844421 52.38900757 C258.09703428 57.3904301 258.10362358 62.39163833 258.11558914 67.39305305 C258.1228142 71.24147153 258.12051711 75.08983913 258.11533356 78.93825912 C258.11399967 80.7826528 258.11563564 82.62705109 258.12029266 84.47143936 C258.12537023 87.04695136 258.11763109 89.62211526 258.10649109 92.19760132 C258.11053955 92.95925598 258.11458801 93.72091064 258.11875916 94.50564575 C258.08878003 98.24591683 257.93593818 101.09283761 255.84770203 104.26742554 C255.18770203 104.26742554 254.52770203 104.26742554 253.84770203 104.26742554 C253.84770203 106.57742554 253.84770203 108.88742554 253.84770203 111.26742554 C254.75520203 111.39117554 255.66270203 111.51492554 256.59770203 111.64242554 C259.84770203 112.26742554 259.84770203 112.26742554 261.97270203 113.39242554 C264.42474209 114.5367109 265.26215587 113.9856328 267.84770203 113.26742554 C274.251341 112.73378896 278.57235626 113.50824212 283.84770203 117.26742554 C290.17052796 123.56688808 292.5606267 130.2999065 294.59770203 138.82992554 C294.88790222 139.97944702 295.17810242 141.12896851 295.47709656 142.31332397 C301.88998962 168.13184195 305.76502851 193.79249114 292.84770203 218.26742554 C292.18770203 218.26742554 291.52770203 218.26742554 290.84770203 218.26742554 C290.57957703 218.84492554 290.31145203 219.42242554 290.03520203 220.01742554 C288.81841014 222.32292596 287.54436323 224.28798746 285.84770203 226.26742554 C285.18770203 226.26742554 284.52770203 226.26742554 283.84770203 226.26742554 C283.84770203 226.92742554 283.84770203 227.58742554 283.84770203 228.26742554 C281.73170617 229.85366994 279.63977638 231.29433794 277.41020203 232.70492554 C276.76712097 233.11234985 276.12403992 233.51977417 275.46147156 233.93954468 C270.73969129 236.85851725 266.30788788 239.09196886 260.84770203 240.26742554 C259.96082703 240.46851929 259.07395203 240.66961304 258.16020203 240.87680054 C242.09828823 244.03792187 225.23470175 243.2228148 211.20317078 234.05648804 C207.56234683 231.29115244 204.20089108 228.26086519 200.87895203 225.12289429 C198.98265693 223.22113491 198.98265693 223.22113491 196.84770203 222.26742554 C196.84770203 221.60742554 196.84770203 220.94742554 196.84770203 220.26742554 C196.18770203 220.26742554 195.52770203 220.26742554 194.84770203 220.26742554 C194.84770203 219.60742554 194.84770203 218.94742554 194.84770203 218.26742554 C194.18770203 218.26742554 193.52770203 218.26742554 192.84770203 218.26742554 C192.84770203 217.60742554 192.84770203 216.94742554 192.84770203 216.26742554 C192.18770203 216.26742554 191.52770203 216.26742554 190.84770203 216.26742554 C187.84770203 212.80588708 187.84770203 212.80588708 187.84770203 210.26742554 C187.18770203 210.26742554 186.52770203 210.26742554 185.84770203 210.26742554 C184.01652098 208.1370319 182.29637241 205.99988294 180.59770203 203.76742554 C180.10552185 203.12901733 179.61334167 202.49060913 179.10624695 201.83285522 C178.12772847 200.56128119 177.1520035 199.28755199 176.179245 198.01156616 C175.05815826 196.54309465 173.92500223 195.08384857 172.78910828 193.62680054 C168.84770203 188.52282122 168.84770203 188.52282122 168.84770203 186.26742554 C168.18770203 186.26742554 167.52770203 186.26742554 166.84770203 186.26742554 C165.44201398 184.31760019 164.11819843 182.30791976 162.84770203 180.26742554 C162.27020203 179.35992554 161.69270203 178.45242554 161.09770203 177.51742554 C159.84770203 175.26742554 159.84770203 175.26742554 159.84770203 173.26742554 C159.18770203 173.26742554 158.52770203 173.26742554 157.84770203 173.26742554 C152.39918461 165.7757141 149.24458151 159.28476312 150.55863953 150.02523804 C150.65403015 149.44515991 150.74942078 148.86508179 150.84770203 148.26742554 C147.34299236 146.11082791 144.56488335 146.02655058 140.49142456 146.04710388 C138.52943871 146.04948311 138.52943871 146.04948311 136.52781677 146.0519104 C135.0800005 146.06377295 133.63218559 146.07580249 132.18437195 146.08798218 C130.65821627 146.09345832 129.13205703 146.09800783 127.605896 146.10169983 C124.31993714 146.1114104 121.0340842 146.12723766 117.74817467 146.14766121 C112.54978328 146.17948178 107.35142258 146.19497143 102.1529541 146.2077179 C89.23886389 146.24180246 76.32485682 146.29440789 63.41087341 146.35684204 C53.37818414 146.40532222 43.34557082 146.44740243 33.31278116 146.46835035 C28.14798967 146.479859 22.98351178 146.50524707 17.81883466 146.54109776 C14.6008552 146.56032998 11.38293902 146.5669752 8.16490746 146.57016182 C6.67620506 146.57417096 5.18750593 146.58333479 3.69887161 146.59812546 C-10.1659638 146.73087989 -10.1659638 146.73087989 -16.15229797 143.26742554 C-16.15229797 142.60742554 -16.15229797 141.94742554 -16.15229797 141.26742554 C-16.76663633 141.00836174 -17.38097469 140.74929794 -18.01392937 140.48238373 C-21.68404941 138.39712939 -22.86182639 135.1742697 -24.15229797 131.26742554 C-24.70628069 127.60311877 -24.73694784 123.99815062 -24.72993469 120.29672241 C-24.74348495 119.22575821 -24.75703522 118.15479401 -24.77099609 117.05137634 C-24.81051821 113.5295254 -24.82183609 110.00822394 -24.83198547 106.48617554 C-24.8520617 104.02811504 -24.87357811 101.57006592 -24.89646912 99.11203003 C-24.9402345 93.96770032 -24.97077873 88.82352109 -24.99116516 83.67904663 C-25.01771814 77.09502789 -25.070641 70.51155782 -25.132658 63.92778778 C-25.17864226 58.8542832 -25.21390809 53.78075022 -25.24562454 48.70713806 C-25.26145525 46.27990437 -25.27982986 43.85268586 -25.30082321 41.42549133 C-25.32792887 38.02966189 -25.3414005 34.63404698 -25.35102844 31.23812866 C-25.36128555 30.24152725 -25.37154266 29.24492584 -25.3821106 28.21812439 C-25.38090465 18.49878861 -23.72077157 11.57274972 -17.21479797 4.01742554 C-12.00760975 -0.40079477 -6.49699249 -0.02086556 0 0 Z " fill="#4B98D5" transform="translate(116.15229797363281,95.73257446289063)"/>
<path d="M0 0 C1.0209375 0.01546875 1.0209375 0.01546875 2.0625 0.03125 C2.743125 0.0209375 3.42375 0.010625 4.125 0 C6.92405558 0.76748298 7.53030816 2.08975969 9.0625 4.53125 C9.99804688 7.5012207 9.99804688 7.5012207 10.78125 10.95703125 C11.22017578 12.86645508 11.22017578 12.86645508 11.66796875 14.81445312 C11.9662145 16.15753684 12.2643914 17.50063584 12.5625 18.84375 C12.85981941 20.14407661 13.15798977 21.44420896 13.45703125 22.74414062 C15.22630421 30.52660339 16.84160892 38.32908056 18.38818359 46.15893555 C19.23286791 50.38327462 20.14666489 54.58608462 21.125 58.78125 C21.28548828 59.49925781 21.44597656 60.21726563 21.61132812 60.95703125 C22.39303341 64.3161664 23.12717767 66.62826651 25.0625 69.53125 C27.5625 70.03125 27.5625 70.03125 30.0625 69.53125 C32.61407647 65.70388529 32.0504793 64.03567429 31.5625 59.53125 C30.84027778 52.86458333 30.84027778 52.86458333 33.0625 49.53125 C35.0078125 49.23828125 35.0078125 49.23828125 37.1875 49.34375 C38.46625 49.405625 39.745 49.4675 41.0625 49.53125 C43.81635216 54.41307883 45.03387215 59.08557314 46.0625 64.53125 C48.96323181 65.20926034 48.96323181 65.20926034 52.0625 65.53125 C54.33990133 63.70799149 54.33990133 63.70799149 54.15234375 61.03515625 C54.0509087 59.07667953 53.9467487 57.11834201 53.83984375 55.16015625 C54.0625 52.53125 54.0625 52.53125 55.37890625 50.70703125 C57.98516495 48.88688306 59.9766775 49.14552219 63.0625 49.53125 C65.92043546 51.7142995 66.53429045 53.61257816 67.125 57.09375 C67.70852448 60.72760678 67.70852448 60.72760678 70.0625 63.53125 C72.60440002 63.7813273 72.60440002 63.7813273 75.0625 63.53125 C76.72592837 61.86782163 76.42298097 59.7486791 76.625 57.46875 C76.75068359 56.09009766 76.75068359 56.09009766 76.87890625 54.68359375 C76.93949219 53.97332031 77.00007813 53.26304687 77.0625 52.53125 C80.12394336 51.56908209 81.65053197 51.3743098 84.6875 52.53125 C90.1391385 57.12210347 91.34787911 65.64545332 93.125 72.28125 C93.38087891 73.20679688 93.63675781 74.13234375 93.90039062 75.0859375 C96.84481822 85.95534115 98.42420776 96.19028181 98.4375 107.46875 C98.46199219 108.55865234 98.48648438 109.64855469 98.51171875 110.77148438 C98.55732212 123.56323008 94.72997233 134.05819504 86.0625 143.53125 C75.62815109 152.72221434 64.32216479 154.70438135 50.8125 154.78125 C49.47638672 154.8121875 49.47638672 154.8121875 48.11328125 154.84375 C37.6761307 154.90434304 29.97258633 152.29950378 22.0625 145.53125 C21.46695313 145.05558594 20.87140625 144.57992187 20.2578125 144.08984375 C16.40847105 140.95049195 13.15108209 137.50677072 9.94140625 133.72265625 C7.89220531 131.33263187 5.76138683 129.03103146 3.625 126.71875 C-0.98903287 121.59290844 -4.95547972 116.1533227 -8.9375 110.53125 C-9.99534793 109.08053572 -11.05541445 107.63143772 -12.1171875 106.18359375 C-28.13778178 84.30554111 -28.13778178 84.30554111 -27.6328125 79.83203125 C-26.9375 77.53125 -26.9375 77.53125 -25.9375 76.53125 C-20.69622442 75.59050823 -17.18317401 77.49373624 -12.87109375 80.2109375 C-7.08703824 84.78580963 -2.27376012 90.39306558 2.59545898 95.90893555 C3.07958252 96.44429932 3.56370605 96.97966309 4.0625 97.53125 C4.56402588 98.09175049 5.06555176 98.65225098 5.58227539 99.22973633 C7.07198666 100.80487284 7.07198666 100.80487284 9.75 100.71875 C10.513125 100.656875 11.27625 100.595 12.0625 100.53125 C12.45102399 93.26568509 10.98859371 86.78889949 9.32421875 79.73828125 C9.04278519 78.51525803 8.76135162 77.2922348 8.47138977 76.03215027 C7.72417775 72.79213231 6.96951027 69.55404258 6.21105957 66.31665039 C5.45019132 63.06085141 4.69926826 59.80278012 3.94726562 56.54492188 C2.83520381 51.73298014 1.71875792 46.92210759 0.59643555 42.11254883 C0.34437347 41.03083405 0.0923114 39.94911926 -0.16738892 38.83462524 C-0.70242603 36.53959482 -1.23862217 34.24483442 -1.77572632 31.95028687 C-2.04462677 30.79582062 -2.31352722 29.64135437 -2.59057617 28.4519043 C-2.83273361 27.41535202 -3.07489105 26.37879974 -3.3243866 25.31083679 C-7.06702437 8.34336152 -7.06702437 8.34336152 -3.671875 2.265625 C-1.9375 0.53125 -1.9375 0.53125 0 0 Z " fill="#4A98D5" transform="translate(306.9375,169.46875)"/>
<path d="M0 0 C1.03176634 -0.00453111 2.06353269 -0.00906223 3.12656468 -0.01373065 C6.58875021 -0.02640522 10.05077905 -0.02475228 13.51298523 -0.02310181 C15.9933238 -0.02908514 18.47366051 -0.03589024 20.95399475 -0.04345703 C26.99527157 -0.05930636 33.03648663 -0.06556629 39.0777785 -0.06668179 C43.98940057 -0.0676326 48.90100979 -0.07174454 53.81262779 -0.07808304 C67.74296296 -0.09569396 81.67326733 -0.10492218 95.60361371 -0.10342209 C96.35439479 -0.10334218 97.10517587 -0.10326227 97.87870789 -0.10317993 C98.63040743 -0.10309817 99.38210698 -0.10301641 100.1565853 -0.10293217 C112.33708516 -0.10211939 124.51746133 -0.12125549 136.69792543 -0.14945666 C149.20962847 -0.17819578 161.7212712 -0.19199639 174.23300809 -0.19026911 C181.25543166 -0.18960555 188.27772558 -0.19508299 195.3001194 -0.21662521 C201.90505935 -0.23675722 208.50977237 -0.23615279 215.11474228 -0.22159195 C217.538289 -0.21949895 219.96185273 -0.22423382 222.38537025 -0.23631287 C225.69538715 -0.25174113 229.00445673 -0.24247214 232.31445312 -0.22705078 C233.27214971 -0.23733791 234.2298463 -0.24762503 235.216564 -0.25822389 C241.86927385 -0.18979094 247.32550044 1.0877625 252.37247449 5.64391196 C257.48151755 11.31404547 258.14575572 17.24827815 258.10649109 24.59603882 C258.11174805 25.81666519 258.11174805 25.81666519 258.11711121 27.06195068 C258.12587541 29.73730127 258.12009931 32.41238502 258.11332703 35.08773804 C258.11467494 36.95288137 258.11661653 38.81802437 258.11912537 40.6831665 C258.12206921 44.58514768 258.11780181 48.48703708 258.10844421 52.38900757 C258.09703428 57.3904301 258.10362358 62.39163833 258.11558914 67.39305305 C258.1228142 71.24147153 258.12051711 75.08983913 258.11533356 78.93825912 C258.11399967 80.7826528 258.11563564 82.62705109 258.12029266 84.47143936 C258.12537023 87.04695136 258.11763109 89.62211526 258.10649109 92.19760132 C258.11053955 92.95925598 258.11458801 93.72091064 258.11875916 94.50564575 C258.08878003 98.24591683 257.93593818 101.09283761 255.84770203 104.26742554 C254.56895203 104.32930054 253.29020203 104.39117554 251.97270203 104.45492554 C250.89375671 104.50713257 250.89375671 104.50713257 249.79301453 104.56039429 C248.83008484 104.41537476 248.83008484 104.41537476 247.84770203 104.26742554 C245.38235615 100.56940672 245.55498795 97.74221278 245.56059265 93.46298218 C245.55375961 92.66917648 245.54692657 91.87537079 245.53988647 91.05751038 C245.52629704 89.33384599 245.51724467 87.61014125 245.51217651 85.88643074 C245.50389484 83.1587478 245.48339677 80.43140085 245.4596405 77.70381165 C245.41138775 71.91256604 245.37846957 66.12128698 245.34770203 60.32992554 C245.31204606 53.6228582 245.27013597 46.91595492 245.21176147 40.2090435 C245.19168516 37.52129324 245.18337162 34.8336684 245.17546082 32.14585876 C245.16248807 30.49765568 245.14896771 28.84945678 245.1348114 27.20126343 C245.1357933 26.45359711 245.13677521 25.70593079 245.13778687 24.93560791 C245.10171894 19.76361797 245.10171894 19.76361797 242.84770203 15.26742554 C239.99023994 13.55208502 237.87305557 13.01684784 234.55883884 13.01294994 C233.70400962 13.00711775 232.8491804 13.00128556 231.96844727 12.99527663 C231.03411785 12.99905595 230.09978843 13.00283528 229.137146 13.00672913 C228.14086935 13.00290358 227.1445927 12.99907803 226.11812586 12.99513656 C222.77020023 12.98479414 219.42244571 12.9888011 216.07450867 12.99276733 C213.67811931 12.98842156 211.28173135 12.98323887 208.88534546 12.97727966 C203.04613953 12.96525845 197.20697624 12.96273999 191.36776263 12.96507993 C186.62199521 12.96686229 181.87624175 12.9651152 177.130476 12.96085548 C176.11767215 12.9599627 176.11767215 12.9599627 175.08440761 12.95905188 C173.7127744 12.95784014 172.34114119 12.95662601 170.96950798 12.9554095 C158.1037111 12.94453082 145.23794043 12.94669803 132.37214207 12.95279435 C120.60019648 12.95796404 108.82833364 12.94670731 97.05640442 12.92769613 C84.97076317 12.90832784 72.88516109 12.90005994 60.79950422 12.90381938 C54.01360727 12.90573294 47.22778074 12.9032289 40.44189644 12.88910484 C34.06188111 12.87656171 27.6820318 12.87843733 21.30201912 12.89151573 C18.95784449 12.8938887 16.6136583 12.89112122 14.26949692 12.88289261 C11.07455056 12.87248453 7.88016739 12.88047827 4.6852417 12.89320374 C3.753143 12.88582945 2.8210443 12.87845517 1.86070019 12.87085742 C-2.94616336 12.9112579 -6.27755602 13.08111493 -10.15229797 16.26742554 C-11.32727525 18.61738009 -11.28801124 20.03000353 -11.30619812 22.65031433 C-11.31909882 24.03193504 -11.31909882 24.03193504 -11.33226013 25.44146729 C-11.33652008 26.45500275 -11.34078003 27.46853821 -11.34516907 28.51278687 C-11.35334656 29.57794022 -11.36152405 30.64309357 -11.36994934 31.74052429 C-11.39482828 35.27682934 -11.41132493 38.81309421 -11.42573547 42.34945679 C-11.43105915 43.55496374 -11.43638283 44.7604707 -11.44186783 46.00250816 C-11.46860901 52.3819045 -11.48798171 58.76128119 -11.50239563 65.14071655 C-11.51905469 71.73861867 -11.56384099 78.33602238 -11.61476707 84.93373585 C-11.64837792 89.99946179 -11.65996631 95.06506849 -11.66562271 100.13089561 C-11.67235114 102.56342062 -11.68761414 104.99593736 -11.71151352 107.42835426 C-11.74303711 110.83061304 -11.74322054 114.23151489 -11.73579407 117.63388062 C-11.76040207 119.14507477 -11.76040207 119.14507477 -11.7855072 120.6867981 C-11.77718872 121.61633804 -11.76887024 122.54587799 -11.76029968 123.50358582 C-11.76360983 124.30755704 -11.76691998 125.11152826 -11.77033043 125.93986225 C-10.82349701 129.50571819 -9.01885348 131.02062387 -6.15229797 133.26742554 C-3.1319485 134.00254241 -3.1319485 134.00254241 0.19256592 133.87974548 C1.47261002 133.88925232 2.75265411 133.89875916 4.07148743 133.90855408 C5.48265528 133.8939239 6.89381858 133.87884858 8.30497742 133.8633728 C9.79674717 133.86527732 11.2885155 133.86943407 12.78027344 133.87567139 C15.98833443 133.88445583 19.1958542 133.87771987 22.40387154 133.8590107 C27.47565749 133.82991467 32.54697729 133.83771196 37.61880493 133.85090637 C47.46711294 133.87156547 57.31519512 133.8559691 67.1634903 133.83543396 C79.70293074 133.8102866 92.24224604 133.79740687 104.78169054 133.82539028 C109.82444603 133.83535282 114.86664356 133.82519519 119.90933812 133.79948246 C123.04418818 133.78732336 126.17886342 133.79150822 129.3137188 133.80006027 C130.76819661 133.80059597 132.22269559 133.79424141 133.67710876 133.78051949 C135.66126655 133.76270695 137.64561123 133.77170074 139.62982178 133.78208923 C140.74054078 133.77928231 141.85125978 133.77647539 142.99563694 133.77358341 C146.51072497 134.3822296 147.72397377 135.44674122 149.84770203 138.26742554 C149.67583638 141.79067125 148.83042387 143.29334278 146.84770203 146.26742554 C144.18484974 146.64494896 144.18484974 146.64494896 140.73193359 146.64837646 C139.42669235 146.65683594 138.12145111 146.66529541 136.7766571 146.67401123 C135.32157774 146.66817759 133.8664996 146.66203304 132.41142273 146.65560913 C130.88555525 146.65967242 129.35969072 146.66501293 127.83383179 146.67153931 C123.68064718 146.68525348 119.52768536 146.67989595 115.3744967 146.67040205 C111.0295553 146.66281972 106.68463329 146.66984772 102.33969116 146.67456055 C95.03674388 146.68002518 87.73388747 146.67281101 80.43095398 146.65853882 C71.99448817 146.64224144 63.55824019 146.6474767 55.12177974 146.66401803 C47.87920818 146.67764925 40.63670208 146.67954365 33.39412183 146.67170203 C29.06846024 146.66703056 24.74290084 146.66638553 20.41724586 146.67631149 C16.34522553 146.68500159 12.2734845 146.67892208 8.20149422 146.66162872 C6.70959689 146.65767345 5.21767593 146.65878147 3.72578812 146.66541672 C-10.16677639 146.72148881 -10.16677639 146.72148881 -16.15229797 143.26742554 C-16.15229797 142.60742554 -16.15229797 141.94742554 -16.15229797 141.26742554 C-16.76663633 141.00836174 -17.38097469 140.74929794 -18.01392937 140.48238373 C-21.68404941 138.39712939 -22.86182639 135.1742697 -24.15229797 131.26742554 C-24.70628069 127.60311877 -24.73694784 123.99815062 -24.72993469 120.29672241 C-24.74348495 119.22575821 -24.75703522 118.15479401 -24.77099609 117.05137634 C-24.81051821 113.5295254 -24.82183609 110.00822394 -24.83198547 106.48617554 C-24.8520617 104.02811504 -24.87357811 101.57006592 -24.89646912 99.11203003 C-24.9402345 93.96770032 -24.97077873 88.82352109 -24.99116516 83.67904663 C-25.01771814 77.09502789 -25.070641 70.51155782 -25.132658 63.92778778 C-25.17864226 58.8542832 -25.21390809 53.78075022 -25.24562454 48.70713806 C-25.26145525 46.27990437 -25.27982986 43.85268586 -25.30082321 41.42549133 C-25.32792887 38.02966189 -25.3414005 34.63404698 -25.35102844 31.23812866 C-25.36128555 30.24152725 -25.37154266 29.24492584 -25.3821106 28.21812439 C-25.38090465 18.49878861 -23.72077157 11.57274972 -17.21479797 4.01742554 C-12.00760975 -0.40079477 -6.49699249 -0.02086556 0 0 Z " fill="#032D4E" transform="translate(116.15229797363281,95.73257446289063)"/>
<path d="M0 0 C12.42416579 9.24589082 13.71189585 26.88786196 16.734375 41.03515625 C16.91838867 41.8950415 17.10240234 42.75492676 17.29199219 43.64086914 C17.6875 46 17.6875 46 17.6875 50 C18.24824219 49.67644531 18.80898438 49.35289062 19.38671875 49.01953125 C23.75011987 47.08600376 29.25791001 47.06554231 33.71875 48.78125 C34.3065625 49.0803125 34.894375 49.379375 35.5 49.6875 C36.551875 50.120625 37.60375 50.55375 38.6875 51 C39.44546875 50.53980469 40.2034375 50.07960937 40.984375 49.60546875 C45.79535791 46.74807861 51.25431175 47.4594183 56.6875 48 C60.25 49.5625 60.25 49.5625 62.6875 51 C64.62824861 50.72382467 64.62824861 50.72382467 66.6875 50 C73.09113897 49.46636342 77.41215423 50.24081658 82.6875 54 C89.01032593 60.29946254 91.40042467 67.03248096 93.4375 75.5625 C93.7277002 76.71202148 94.01790039 77.86154297 94.31689453 79.04589844 C100.7297876 104.86441641 104.60482649 130.5250656 91.6875 155 C91.0275 155 90.3675 155 89.6875 155 C89.419375 155.5775 89.15125 156.155 88.875 156.75 C87.65820811 159.05550043 86.38416121 161.02056192 84.6875 163 C84.0275 163 83.3675 163 82.6875 163 C82.6875 163.66 82.6875 164.32 82.6875 165 C80.57150414 166.58624441 78.47957435 168.02691241 76.25 169.4375 C75.60691895 169.84492432 74.96383789 170.25234863 74.30126953 170.67211914 C69.57948927 173.59109171 65.14768585 175.82454332 59.6875 177 C58.800625 177.20109375 57.91375 177.4021875 57 177.609375 C40.9380862 180.77049633 24.07449973 179.95538927 10.04296875 170.7890625 C6.4021448 168.0237269 3.04068905 164.99343966 -0.28125 161.85546875 C-2.1775451 159.95370937 -2.1775451 159.95370937 -4.3125 159 C-4.3125 158.34 -4.3125 157.68 -4.3125 157 C-4.9725 157 -5.6325 157 -6.3125 157 C-6.3125 156.34 -6.3125 155.68 -6.3125 155 C-6.9725 155 -7.6325 155 -8.3125 155 C-8.3125 154.34 -8.3125 153.68 -8.3125 153 C-8.9725 153 -9.6325 153 -10.3125 153 C-13.3125 149.53846154 -13.3125 149.53846154 -13.3125 147 C-13.9725 147 -14.6325 147 -15.3125 147 C-17.14368104 144.86960637 -18.86382962 142.7324574 -20.5625 140.5 C-21.05468018 139.8615918 -21.54686035 139.22318359 -22.05395508 138.56542969 C-23.03247356 137.29385565 -24.00819852 136.02012645 -24.98095703 134.74414062 C-26.10204377 133.27566911 -27.23519979 131.81642304 -28.37109375 130.359375 C-32.3125 125.25539568 -32.3125 125.25539568 -32.3125 123 C-32.9725 123 -33.6325 123 -34.3125 123 C-35.71818804 121.05017465 -37.0420036 119.04049422 -38.3125 117 C-38.89 116.0925 -39.4675 115.185 -40.0625 114.25 C-41.3125 112 -41.3125 112 -41.3125 110 C-41.9725 110 -42.6325 110 -43.3125 110 C-47.63003756 104.06338586 -51.74183517 97.53327278 -51.1875 90 C-50.2039322 84.19805513 -47.36684028 80.49718522 -42.625 77.125 C-38.16187761 74.5580836 -34.35580247 74.17858646 -29.3125 75 C-24.33736573 76.35520111 -19.90786774 78.69626497 -15.3125 81 C-15.6978894 79.30810547 -15.6978894 79.30810547 -16.09106445 77.58203125 C-17.06140318 73.31839825 -18.02770936 69.05385907 -18.99291992 64.7890625 C-19.40786951 62.95809141 -19.82385169 61.12735397 -20.2409668 59.296875 C-29.80153413 17.32701984 -29.80153413 17.32701984 -24.51953125 6.875 C-18.98447209 -1.72315014 -9.12724291 -2.75539409 0 0 Z M-15.3125 15 C-17.91108725 28.14579432 -11.45984559 45.16419326 -8.5241394 58.04882812 C-7.924921 60.68023949 -7.33027462 63.31265151 -6.73657227 65.9453125 C-5.05890993 73.37442921 -3.36954069 80.79993236 -1.61328125 88.2109375 C-1.37722168 89.21560059 -1.14116211 90.22026367 -0.89794922 91.25537109 C-0.48428996 93.0075781 -0.06346121 94.75811844 0.36669922 96.50634766 C1.53415261 101.46041986 1.86689268 105.90756268 1.6875 111 C-1.98252626 111 -4.24381338 110.93929407 -7.0546875 108.46875 C-8.87239406 106.35786496 -10.60226773 104.19887006 -12.3125 102 C-18.05653537 94.86201463 -24.30600729 87.85807039 -33.8125 86.5 C-36.47428756 86.79198743 -36.47428756 86.79198743 -38.3125 89 C-37.49210159 100.61426768 -26.59610644 111.11871075 -19.76416016 120.08251953 C-18.44563793 121.8241397 -17.14561827 123.57715496 -15.85546875 125.33984375 C-11.68141656 131.01977116 -7.34552767 136.39038189 -2.5546875 141.5625 C-1.04839516 143.20000247 0.42561272 144.86774542 1.8671875 146.5625 C10.18410798 156.27050682 19.17583948 163.84338688 32.25024414 165.28198242 C34.841628 165.40030252 37.40635504 165.41719073 40 165.375 C40.91571777 165.36412354 41.83143555 165.35324707 42.77490234 165.34204102 C56.10927365 165.03038037 67.32354877 162.38874568 77.0078125 152.671875 C89.02554355 138.56988801 88.64685426 122.66309746 87.6875 105 C86.98063425 98.51177701 85.43726821 92.27547481 83.6875 86 C83.44660645 85.10893555 83.20571289 84.21787109 82.95751953 83.29980469 C82.20085032 80.52679771 81.4204908 77.76210705 80.625 75 C80.37991699 74.14422363 80.13483398 73.28844727 79.88232422 72.40673828 C79.52098389 71.21540283 79.52098389 71.21540283 79.15234375 70 C78.942146 69.29875 78.73194824 68.5975 78.51538086 67.875 C77.54341138 65.67366542 76.57107935 64.49403815 74.6875 63 C71.12543339 62.18129815 71.12543339 62.18129815 67.6875 62 C66.03522074 63.65227926 66.3678818 65.73234304 66.1875 68 C65.79861111 72.88888889 65.79861111 72.88888889 64.6875 74 C62.25 74.1875 62.25 74.1875 59.6875 74 C56.98714259 71.29964259 56.97173013 68.86920086 56.34765625 65.19140625 C55.58324011 62.65390653 54.78215132 61.60001077 52.6875 60 C48.60592123 59.48495263 48.60592123 59.48495263 45.00390625 61.17578125 C43.16725513 63.7209328 43.45593476 65.46571959 43.625 68.5625 C43.77734375 71.50390625 43.77734375 71.50390625 43.6875 74 C43.0275 74.66 42.3675 75.32 41.6875 76 C38.5625 75.625 38.5625 75.625 35.6875 75 C35.49414062 74.16855469 35.30078125 73.33710938 35.1015625 72.48046875 C34.84117187 71.39378906 34.58078125 70.30710938 34.3125 69.1875 C34.05726563 68.10855469 33.80203125 67.02960938 33.5390625 65.91796875 C32.80017119 62.84466657 32.80017119 62.84466657 30.6875 60 C28.785506 59.52441794 28.785506 59.52441794 26.6875 59.625 C25.635625 59.61339844 25.635625 59.61339844 24.5625 59.6015625 C22.27691406 59.859086 22.27691406 59.859086 20.6875 63 C20.74101331 66.3396556 20.74101331 66.3396556 21.1875 70 C21.90972222 76.66666667 21.90972222 76.66666667 19.6875 80 C17.0625 80.1875 17.0625 80.1875 14.6875 80 C12.09179458 74.4463977 10.54771423 68.96723375 9.1875 63 C8.86168945 61.60189087 8.86168945 61.60189087 8.52929688 60.17553711 C7.06289883 53.82023364 5.75170297 47.44762885 4.5 41.046875 C3.45603322 35.78897979 2.33421399 30.54884864 1.1875 25.3125 C0.98576172 24.35480713 0.78402344 23.39711426 0.57617188 22.41040039 C0.37572266 21.50797607 0.17527344 20.60555176 -0.03125 19.67578125 C-0.20591797 18.87052002 -0.38058594 18.06525879 -0.56054688 17.2355957 C-1.41901283 14.68333184 -2.53257764 13.01087236 -4.3125 11 C-6.24675486 10.37276792 -6.24675486 10.37276792 -8.3125 10.5 C-9.3334375 10.48453125 -9.3334375 10.48453125 -10.375 10.46875 C-13.1606733 11.23256365 -13.90516217 12.53068331 -15.3125 15 Z " fill="#0E3757" transform="translate(317.3125,159)"/>
<path d="M0 0 C0 0.99 0 1.98 0 3 C0.99 3.33 1.98 3.66 3 4 C2.01 5.485 2.01 5.485 1 7 C0.34 7 -0.32 7 -1 7 C-0.67 7.99 -0.34 8.98 0 10 C2.475 10.495 2.475 10.495 5 11 C4.195625 11.61875 3.39125 12.2375 2.5625 12.875 C-0.03874519 14.74164041 -0.03874519 14.74164041 -1 17 C-1.10246135 18.45826817 -1.14375399 19.92106068 -1.15390015 21.38288879 C-1.16680084 22.76450951 -1.16680084 22.76450951 -1.17996216 24.17404175 C-1.18422211 25.18757721 -1.18848206 26.20111267 -1.19287109 27.24536133 C-1.20104858 28.31051468 -1.20922607 29.37566803 -1.21765137 30.47309875 C-1.24253031 34.0094038 -1.25902696 37.54566868 -1.2734375 41.08203125 C-1.27876118 42.2875382 -1.28408485 43.49304516 -1.28956985 44.73508263 C-1.31631104 51.11447896 -1.33568373 57.49385565 -1.35009766 63.87329102 C-1.36675672 70.47119313 -1.41154301 77.06859684 -1.4624691 83.66631031 C-1.49607994 88.73203626 -1.50766834 93.79764296 -1.51332474 98.86347008 C-1.52005317 101.29599509 -1.53531617 103.72851182 -1.55921555 106.16092873 C-1.59073913 109.56318751 -1.59092257 112.96408936 -1.58349609 116.36645508 C-1.6081041 117.87764923 -1.6081041 117.87764923 -1.63320923 119.41937256 C-1.62489075 120.34891251 -1.61657227 121.27845245 -1.60800171 122.23616028 C-1.61131186 123.0401315 -1.614622 123.84410273 -1.61803246 124.67243671 C-0.67119904 128.23829266 1.1334445 129.75319833 4 132 C7.02034947 132.73511687 7.02034947 132.73511687 10.34486389 132.61231995 C11.62490799 132.62182678 12.90495209 132.63133362 14.2237854 132.64112854 C15.63495326 132.62649837 17.04611655 132.61142305 18.45727539 132.59594727 C19.94904515 132.59785179 21.44081348 132.60200854 22.93257141 132.60824585 C26.1406324 132.61703029 29.34815217 132.61029434 32.55616951 132.59158516 C37.62795547 132.56248913 42.69927526 132.57028642 47.77110291 132.58348083 C57.61941091 132.60413993 67.4674931 132.58854356 77.31578827 132.56800842 C89.85522871 132.54286107 102.39454402 132.52998133 114.93398851 132.55796474 C119.976744 132.56792729 125.01894153 132.55776965 130.06163609 132.53205693 C133.19648616 132.51989782 136.33116139 132.52408268 139.46601677 132.53263474 C140.92049458 132.53317043 142.37499356 132.52681587 143.82940674 132.51309395 C145.81356452 132.49528141 147.79790921 132.5042752 149.78211975 132.5146637 C150.89283875 132.51185678 152.00355776 132.50904985 153.14793491 132.50615788 C156.66302295 133.11480406 157.87627175 134.17931568 160 137 C159.82813436 140.52324572 158.98272184 142.02591724 157 145 C154.33714771 145.37752342 154.33714771 145.37752342 150.88423157 145.38095093 C149.57899033 145.3894104 148.27374908 145.39786987 146.92895508 145.40658569 C145.47387572 145.40075206 144.01879758 145.3946075 142.5637207 145.38818359 C141.03785323 145.39224688 139.51198869 145.3975874 137.98612976 145.40411377 C133.83294515 145.41782794 129.67998334 145.41247041 125.52679467 145.40297651 C121.18185327 145.39539418 116.83693127 145.40242219 112.49198914 145.40713501 C105.18904185 145.41259965 97.88618545 145.40538548 90.58325195 145.39111328 C82.14678614 145.3748159 73.71053816 145.38005116 65.27407771 145.3965925 C58.03150615 145.41022372 50.78900005 145.41211811 43.5464198 145.40427649 C39.22075821 145.39960502 34.89519882 145.39896 30.56954384 145.40888596 C26.49752351 145.41757606 22.42578247 145.41149654 18.35379219 145.39420319 C16.86189487 145.39024791 15.3699739 145.39135593 13.87808609 145.39799118 C-0.01447842 145.45406327 -0.01447842 145.45406327 -6 142 C-6 141.34 -6 140.68 -6 140 C-6.61433836 139.7409362 -7.22867672 139.48187241 -7.86163139 139.21495819 C-11.53175144 137.12970386 -12.70952842 133.90684416 -14 130 C-14.55398271 126.33569323 -14.58464987 122.73072508 -14.57763672 119.02929688 C-14.59118698 117.95833267 -14.60473724 116.88736847 -14.61869812 115.78395081 C-14.65822024 112.26209987 -14.66953811 108.74079841 -14.6796875 105.21875 C-14.69976373 102.7606895 -14.72128014 100.30264039 -14.74417114 97.84460449 C-14.78793653 92.70027478 -14.81848076 87.55609556 -14.83886719 82.41162109 C-14.86542016 75.82760236 -14.91834303 69.24413228 -14.98036003 62.66036224 C-15.02634429 57.58685766 -15.06161011 52.51332468 -15.09332657 47.43971252 C-15.10915728 45.01247883 -15.12753188 42.58526032 -15.14852524 40.1580658 C-15.17563089 36.76223635 -15.18910252 33.36662144 -15.19873047 29.97070312 C-15.20898758 28.97410172 -15.21924469 27.97750031 -15.22981262 26.95069885 C-15.22860504 17.21813562 -13.60256828 10.16045534 -6.9375 2.6875 C-4.69176058 0.73153341 -2.99790117 0 0 0 Z " fill="#0E3757" transform="translate(106,97)"/>
<path d="M0 0 C12.42416579 9.24589082 13.71189585 26.88786196 16.734375 41.03515625 C16.91838867 41.8950415 17.10240234 42.75492676 17.29199219 43.64086914 C17.6875 46 17.6875 46 17.6875 50 C18.24824219 49.67644531 18.80898438 49.35289062 19.38671875 49.01953125 C23.75011987 47.08600376 29.25791001 47.06554231 33.71875 48.78125 C34.3065625 49.0803125 34.894375 49.379375 35.5 49.6875 C36.551875 50.120625 37.60375 50.55375 38.6875 51 C39.81865234 50.30970703 39.81865234 50.30970703 40.97265625 49.60546875 C44.30358079 47.63567021 46.46951503 47.59849666 50.3125 47.625 C51.43914062 47.61726563 52.56578125 47.60953125 53.7265625 47.6015625 C56.6875 48 56.6875 48 58.5859375 49.5234375 C58.94945312 50.01070312 59.31296875 50.49796875 59.6875 51 C59.3575 51.99 59.0275 52.98 58.6875 54 C57.0375 54.33 55.3875 54.66 53.6875 55 C53.6875 55.66 53.6875 56.32 53.6875 57 C53.0275 57 52.3675 57 51.6875 57 C51.6875 57.66 51.6875 58.32 51.6875 59 C53.6675 59.495 53.6675 59.495 55.6875 60 C55.6875 60.99 55.6875 61.98 55.6875 63 C54.2025 62.01 54.2025 62.01 52.6875 61 C49.64554573 60.66659529 49.64554573 60.66659529 46.6875 61 C44.41009867 62.82325851 44.41009867 62.82325851 44.59765625 65.49609375 C44.6990913 67.45457047 44.8032513 69.41290799 44.91015625 71.37109375 C44.6875 74 44.6875 74 43.375 75.8515625 C41.6875 77 41.6875 77 38.625 76.9375 C35.6875 76 35.6875 76 34.5703125 74.23046875 C33.66605707 71.94582339 33.10419063 69.7830336 32.625 67.375 C32.15127026 65.01809665 31.76421842 63.15343684 30.6875 61 C28.79216658 60.53476937 28.79216658 60.53476937 26.625 60.375 C25.325625 60.25125 24.02625 60.1275 22.6875 60 C21.95075576 64.50232594 21.61566346 68.23180181 22.3125 72.75 C22.70300403 75.72502414 22.79914959 76.74568704 21.5625 79.5625 C19.6875 81 19.6875 81 17.1875 81.5 C14.6875 81 14.6875 81 13.125 79.30200195 C11.52610277 76.74153966 10.87054356 74.6041921 10.1875 71.66796875 C9.94185303 70.63003174 9.69620605 69.59209473 9.44311523 68.52270508 C9.19376221 67.4220874 8.94440918 66.32146973 8.6875 65.1875 C8.29123413 63.48726685 8.29123413 63.48726685 7.88696289 61.75268555 C6.28700184 54.82677932 4.81494377 47.88952991 3.46875 40.91015625 C2.4226392 35.67437171 1.28513396 30.4615688 0.125 25.25 C-0.19029663 23.80040894 -0.19029663 23.80040894 -0.51196289 22.3215332 C-0.81734985 20.96354614 -0.81734985 20.96354614 -1.12890625 19.578125 C-1.39876343 18.36237793 -1.39876343 18.36237793 -1.67407227 17.12207031 C-2.2807523 14.7318606 -2.2807523 14.7318606 -4.3125 12 C-6.214494 11.52441794 -6.214494 11.52441794 -8.3125 11.625 C-9.364375 11.61339844 -9.364375 11.61339844 -10.4375 11.6015625 C-12.72308594 11.859086 -12.72308594 11.859086 -14.3125 15 C-16.44493206 28.59771611 -10.54207936 44.80350446 -7.5241394 58.04937744 C-6.92515683 60.67919232 -6.3304243 63.30994014 -5.73657227 65.94091797 C-4.05243941 73.39328622 -2.35635805 80.84241027 -0.61328125 88.28125 C-0.37722168 89.29493652 -0.14116211 90.30862305 0.10205078 91.35302734 C0.51760696 93.13080613 0.93866913 94.90731213 1.36669922 96.68212891 C3.81516009 107.16013353 3.81516009 107.16013353 1.5 110.9375 C-0.3125 112 -0.3125 112 -2.6484375 111.85546875 C-6.10050211 110.7469612 -7.41740283 109.12754782 -9.75 106.375 C-10.53246094 105.47007812 -11.31492187 104.56515625 -12.12109375 103.6328125 C-13.39865139 102.0979215 -14.66671736 100.55484665 -15.91015625 98.9921875 C-19.73496098 94.24048023 -24.10960418 91.15642347 -29.3125 88 C-28.6525 85.03 -27.9925 82.06 -27.3125 79 C-22.16865201 77.65280172 -19.90204735 78.49953233 -15.3125 81 C-15.56942627 79.87207031 -15.82635254 78.74414062 -16.09106445 77.58203125 C-17.06140318 73.31839825 -18.02770936 69.05385907 -18.99291992 64.7890625 C-19.40786951 62.95809141 -19.82385169 61.12735397 -20.2409668 59.296875 C-29.80153413 17.32701984 -29.80153413 17.32701984 -24.51953125 6.875 C-18.98447209 -1.72315014 -9.12724291 -2.75539409 0 0 Z " fill="#033053" transform="translate(317.3125,159)"/>
<path d="M0 0 C1.28090012 -0.01029488 1.28090012 -0.01029488 2.587677 -0.02079773 C5.41408857 -0.03911915 8.23994797 -0.03522102 11.06640625 -0.02954102 C13.02791526 -0.03409994 14.98942267 -0.03940465 16.95092773 -0.04542542 C21.06337978 -0.05436678 25.17563774 -0.05192136 29.28808594 -0.04199219 C34.56451706 -0.03049559 39.84027966 -0.05071943 45.11662292 -0.07990932 C49.16748323 -0.09823253 53.21818215 -0.09798673 57.26907349 -0.0922718 C59.21478209 -0.09211814 61.16050133 -0.09819926 63.10617065 -0.11056328 C65.82381467 -0.12540007 68.5402083 -0.114851 71.2578125 -0.09765625 C72.06517853 -0.10732422 72.87254456 -0.11699219 73.70437622 -0.12695312 C79.14161587 -0.05471846 79.14161587 -0.05471846 81.62939453 2.28746033 C83.94320357 7.18724344 82.9851603 12.84201576 81.81640625 17.96655273 C81.42453125 18.77092773 81.03265625 19.57530273 80.62890625 20.40405273 C76.90130985 21.64658487 73.43211745 21.5596044 69.54907227 21.56518555 C68.31447266 21.5726329 68.31447266 21.5726329 67.05493164 21.58023071 C64.33088345 21.5948418 61.60689345 21.60165187 58.8828125 21.60717773 C56.99096169 21.61292917 55.0991109 21.61868691 53.20726013 21.62445068 C49.24030282 21.63495706 45.27336575 21.6408024 41.30639648 21.64428711 C36.2207696 21.64977717 31.13540972 21.67381764 26.04986668 21.70225906 C22.14225986 21.72087064 18.23471763 21.72609021 14.32707024 21.72762299 C12.45195999 21.73065238 10.57685095 21.73869056 8.70178413 21.75180817 C6.08035989 21.76884102 3.45959171 21.76699552 0.83813477 21.76049805 C-0.32544304 21.77432022 -0.32544304 21.77432022 -1.51252747 21.78842163 C-4.69516042 21.7636793 -7.01215545 21.59284151 -9.85316467 20.09857178 C-12.28604332 17.38266149 -11.91054586 14.3572695 -11.80859375 10.90405273 C-11.81568359 10.22729492 -11.82277344 9.55053711 -11.83007812 8.85327148 C-11.79623666 6.21363702 -11.73498441 4.01719456 -10.3671875 1.71250916 C-7.16094846 -0.38920779 -3.71075513 -0.02069014 0 0 Z " fill="#012E50" transform="translate(201.37109375,190.595947265625)"/>
<path d="M0 0 C5.63062595 1.62421902 9.64647572 4.46879181 12.625 9.5625 C15.03255292 14.56280221 15.39847798 18.47556291 15.39526367 23.92553711 C15.39862228 24.73884995 15.4019809 25.55216278 15.40544128 26.39012146 C15.41494907 29.08171104 15.41689425 31.77323841 15.41796875 34.46484375 C15.42118125 36.33427455 15.42454531 38.20370511 15.42805481 40.07313538 C15.4340455 43.99301741 15.43589475 47.91287739 15.43530273 51.83276367 C15.43520107 56.85779766 15.44885812 61.88269049 15.46607494 66.907691 C15.47718789 70.76897329 15.47922217 74.63022137 15.47869301 78.49151802 C15.479874 80.34428965 15.48430245 82.19706213 15.49202538 84.04981804 C15.50181182 86.64000241 15.49895266 89.22987914 15.49291992 91.82006836 C15.49853943 92.58643616 15.50415894 93.35280396 15.50994873 94.14239502 C15.48771922 97.89432594 15.35020241 100.75428158 13.25 103.9375 C11.97125 103.999375 10.6925 104.06125 9.375 104.125 C8.29605469 104.17720703 8.29605469 104.17720703 7.1953125 104.23046875 C6.55335938 104.13378906 5.91140625 104.03710938 5.25 103.9375 C2.78465412 100.23948118 2.95728593 97.41228725 2.96289062 93.13305664 C2.95605759 92.33925095 2.94922455 91.54544525 2.94218445 90.72758484 C2.92859501 89.00392045 2.91954265 87.28021571 2.91447449 85.5565052 C2.90619282 82.82882227 2.88569474 80.10147532 2.86193848 77.37388611 C2.81368573 71.5826405 2.78076754 65.79136145 2.75 60 C2.71434404 53.29293266 2.67243394 46.58602938 2.61405945 39.87911797 C2.59398314 37.1913677 2.58566959 34.50374287 2.57775879 31.81593323 C2.56478605 30.16773014 2.55126569 28.51953124 2.53710938 26.87133789 C2.53809128 26.12367157 2.53907318 25.37600525 2.54008484 24.60568237 C2.49609597 20.93093856 2.42559608 17.99323612 0.25 14.9375 C-0.41 14.669375 -1.07 14.40125 -1.75 14.125 C-3.75 12.9375 -3.75 12.9375 -5 9.5625 C-5.75 5.9375 -5.75 5.9375 -5.75 1.9375 C-2.75 -0.0625 -2.75 -0.0625 0 0 Z " fill="#143C59" transform="translate(358.75,96.0625)"/>
<path d="M0 0 C1.98 0.99 3.96 1.98 6 3 C6.66 2.34 7.32 1.68 8 1 C8.33 1.66 8.66 2.32 9 3 C12.0745356 2.2236068 12.0745356 2.2236068 14 0 C18.65425004 3.31101979 21.68066822 7.25052498 25 11.8125 C25.50789063 12.49892578 26.01578125 13.18535156 26.5390625 13.89257812 C29.7389285 18.22880679 32.87696272 22.60822882 36 27 C33 27 33 27 30 26 C30 26.928125 30 27.85625 30 28.8125 C30 30.875 30 32.9375 30 35 C30.99 35.66 31.98 36.32 33 37 C33.66 35.68 34.32 34.36 35 33 C36.32 33 37.64 33 39 33 C39 33.66 39 34.32 39 35 C38.01 35.33 37.02 35.66 36 36 C36 37.32 36 38.64 36 40 C35.34 40 34.68 40 34 40 C34.33 40.99 34.66 41.98 35 43 C34.34 43 33.68 43 33 43 C33 42.34 33 41.68 33 41 C32.34 41 31.68 41 31 41 C31 40.34 31 39.68 31 39 C30.34 39 29.68 39 29 39 C26 35.53846154 26 35.53846154 26 33 C25.34 33 24.68 33 24 33 C22.16881896 30.86960637 20.44867038 28.7324574 18.75 26.5 C18.25781982 25.8615918 17.76563965 25.22318359 17.25854492 24.56542969 C16.28002644 23.29385565 15.30430148 22.02012645 14.33154297 20.74414062 C13.21045623 19.27566911 12.07730021 17.81642304 10.94140625 16.359375 C7 11.25539568 7 11.25539568 7 9 C6.34 9 5.68 9 5 9 C2.82796 6.03812728 1.16438003 3.49314009 0 0 Z " fill="#0E3858" transform="translate(278,273)"/>
<path d="M0 0 C0.78890625 -0.00386719 1.5778125 -0.00773438 2.390625 -0.01171875 C3.21046875 -0.00011719 4.0303125 0.01148438 4.875 0.0234375 C6.10476562 0.00603516 6.10476562 0.00603516 7.359375 -0.01171875 C8.54273438 -0.00591797 8.54273438 -0.00591797 9.75 0 C10.46929687 0.00338379 11.18859375 0.00676758 11.9296875 0.01025391 C14.44989509 0.51315678 15.33658175 1.36703891 16.875 3.3984375 C17.30859375 6.61328125 17.30859375 6.61328125 17.3125 10.3359375 C17.34150391 12.17478516 17.34150391 12.17478516 17.37109375 14.05078125 C16.875 17.3984375 16.875 17.3984375 15.41796875 19.81640625 C11.60059741 22.1912686 8.15261784 21.90558559 3.75 21.7734375 C2.51443359 21.77150391 2.51443359 21.77150391 1.25390625 21.76953125 C-4.84372404 21.67971346 -4.84372404 21.67971346 -7.125 19.3984375 C-7.35052238 16.70681325 -7.4493329 14.15174006 -7.4375 11.4609375 C-7.45361328 10.73197266 -7.46972656 10.00300781 -7.48632812 9.25195312 C-7.49124017 3.89290768 -7.49124017 3.89290768 -5.86010742 1.69067383 C-3.74175656 0.11301362 -2.62050163 0.01232763 0 0 Z " fill="#022F52" transform="translate(197.125,156.6015625)"/>
<path d="M0 0 C0.79341797 -0.00257813 1.58683594 -0.00515625 2.40429688 -0.0078125 C3.64083008 0.00378906 3.64083008 0.00378906 4.90234375 0.015625 C5.73056641 0.00789062 6.55878906 0.00015625 7.41210938 -0.0078125 C8.20423828 -0.00523437 8.99636719 -0.00265625 9.8125 0 C10.53703369 0.00225586 11.26156738 0.00451172 12.00805664 0.00683594 C13.83984375 0.265625 13.83984375 0.265625 15.83984375 2.265625 C16.06491759 5.14189329 16.16414781 7.89015524 16.15234375 10.765625 C16.16845703 11.55066406 16.18457031 12.33570313 16.20117188 13.14453125 C16.203125 15.421875 16.203125 15.421875 15.83984375 19.265625 C12.78170485 21.30438426 12.12924366 21.52052639 8.6796875 21.53125 C7.88626953 21.53382813 7.09285156 21.53640625 6.27539062 21.5390625 C5.45103516 21.53132813 4.62667969 21.52359375 3.77734375 21.515625 C2.94912109 21.52335937 2.12089844 21.53109375 1.26757812 21.5390625 C0.47544922 21.53648437 -0.31667969 21.53390625 -1.1328125 21.53125 C-1.85734619 21.52899414 -2.58187988 21.52673828 -3.32836914 21.52441406 C-5.16015625 21.265625 -5.16015625 21.265625 -7.16015625 19.265625 C-7.38523009 16.38935671 -7.48446031 13.64109476 -7.47265625 10.765625 C-7.48876953 9.98058594 -7.50488281 9.19554687 -7.52148438 8.38671875 C-7.5234375 6.109375 -7.5234375 6.109375 -7.16015625 2.265625 C-4.10201735 0.22686574 -3.44955616 0.01072361 0 0 Z " fill="#012E51" transform="translate(232.16015625,156.734375)"/>
<path d="M0 0 C0.79341797 -0.00386719 1.58683594 -0.00773438 2.40429688 -0.01171875 C3.64083008 0.00568359 3.64083008 0.00568359 4.90234375 0.0234375 C6.14467773 0.00603516 6.14467773 0.00603516 7.41210938 -0.01171875 C8.20423828 -0.00785156 8.99636719 -0.00398437 9.8125 0 C10.89930054 0.00507568 10.89930054 0.00507568 12.00805664 0.01025391 C13.83984375 0.3984375 13.83984375 0.3984375 15.83984375 3.3984375 C16.03468354 6.12905987 16.11878018 8.73367914 16.08984375 11.4609375 C16.09757812 12.19376953 16.1053125 12.92660156 16.11328125 13.68164062 C16.09321357 19.14506768 16.09321357 19.14506768 13.83984375 21.3984375 C10.69324443 21.8440473 7.51441882 21.72255747 4.33984375 21.7109375 C3.45941406 21.72705078 2.57898438 21.74316406 1.671875 21.75976562 C0.40923828 21.76073242 0.40923828 21.76073242 -0.87890625 21.76171875 C-1.65169922 21.76469971 -2.42449219 21.76768066 -3.22070312 21.77075195 C-4.18073242 21.5864563 -4.18073242 21.5864563 -5.16015625 21.3984375 C-7.56991331 17.78380191 -7.49255057 15.0762449 -7.47265625 10.8984375 C-7.49682617 9.88330078 -7.49682617 9.88330078 -7.52148438 8.84765625 C-7.52637443 3.88913588 -7.52637443 3.88913588 -5.89746094 1.70654297 C-3.76888006 0.10382566 -2.64296901 0.01232427 0 0 Z " fill="#022E50" transform="translate(162.16015625,156.6015625)"/>
<path d="M0 0 C1.19012695 0.0009668 1.19012695 0.0009668 2.40429688 0.00195312 C3.22865234 0.01806641 4.05300781 0.03417969 4.90234375 0.05078125 C5.73056641 0.04755859 6.55878906 0.04433594 7.41210938 0.04101562 C13.57271783 0.09615533 13.57271783 0.09615533 15.83984375 2.36328125 C16.06491759 5.23954954 16.16414781 7.98781149 16.15234375 10.86328125 C16.16845703 11.64832031 16.18457031 12.43335938 16.20117188 13.2421875 C16.203125 15.51953125 16.203125 15.51953125 15.83984375 19.36328125 C11.99665944 21.92540412 8.7929042 21.69436664 4.33984375 21.67578125 C3.18162109 21.69995117 3.18162109 21.69995117 2 21.72460938 C-3.6779874 21.72952964 -3.6779874 21.72952964 -5.87939453 20.05737305 C-7.972225 17.28913999 -7.59217476 14.18936082 -7.53515625 10.86328125 C-7.54675781 10.18652344 -7.55835937 9.50976562 -7.5703125 8.8125 C-7.54108746 3.8734688 -7.54108746 3.8734688 -5.89526367 1.66918945 C-3.76199137 0.06360713 -2.64770316 -0.01087654 0 0 Z " fill="#012E51" transform="translate(127.16015625,156.63671875)"/>
<path d="M0 0 C0.79341797 -0.00386719 1.58683594 -0.00773438 2.40429688 -0.01171875 C3.64083008 0.00568359 3.64083008 0.00568359 4.90234375 0.0234375 C6.14467773 0.00603516 6.14467773 0.00603516 7.41210938 -0.01171875 C8.20423828 -0.00785156 8.99636719 -0.00398437 9.8125 0 C10.89930054 0.00507568 10.89930054 0.00507568 12.00805664 0.01025391 C13.83984375 0.3984375 13.83984375 0.3984375 15.83984375 3.3984375 C16.00872617 6.126318 16.07309501 8.73753352 16.02734375 11.4609375 C16.02669922 12.19376953 16.02605469 12.92660156 16.02539062 13.68164062 C15.98046875 19.1171875 15.98046875 19.1171875 14.83984375 21.3984375 C8.23984375 21.3984375 1.63984375 21.3984375 -5.16015625 21.3984375 C-7.28058465 17.15758069 -7.45795737 14.99548401 -7.47265625 10.3359375 C-7.48941406 9.10746094 -7.50617188 7.87898437 -7.5234375 6.61328125 C-7.16015625 3.3984375 -7.16015625 3.3984375 -5.89746094 1.72241211 C-3.76859583 0.100035 -2.65392077 0.01237534 0 0 Z " fill="#022F54" transform="translate(267.16015625,156.6015625)"/>
<path d="M0 0 C0.76376953 -0.01546875 1.52753906 -0.0309375 2.31445312 -0.046875 C5.94227166 -0.02161604 7.99048302 0.12014497 11.0625 2.16015625 C13.9145778 6.60910053 13.30230595 11.43198355 12.5625 16.5 C10.9375 19.75 10.9375 19.75 7.5625 21.5 C1.40515716 22.36702441 -4.2120564 22.65393372 -9.8125 19.75 C-12.27254304 14.82991393 -12.32824494 9.89642977 -11.4375 4.5 C-9.21206615 -0.68690612 -4.98928691 -0.10053979 0 0 Z " fill="#012E51" transform="translate(306.4375,123.5)"/>
<path d="M0 0 C1.24233398 0.00483398 1.24233398 0.00483398 2.50976562 0.00976562 C3.33412109 -0.00634766 4.15847656 -0.02246094 5.0078125 -0.0390625 C5.80123047 -0.03970703 6.59464844 -0.04035156 7.41210938 -0.04101562 C8.137771 -0.04399658 8.86343262 -0.04697754 9.61108398 -0.05004883 C12.15827451 0.43351467 13.03183212 1.26271493 14.57226562 3.32226562 C14.89781889 5.92669171 15.03699389 8.2232044 15.00976562 10.82226562 C15.03973633 11.83740234 15.03973633 11.83740234 15.0703125 12.87304688 C15.06732768 15.89965659 14.93980167 17.85200797 13.04882812 20.27148438 C9.55056582 21.75576286 6.24039364 21.71871315 2.50976562 21.63476562 C1.42985352 21.63959961 1.42985352 21.63959961 0.328125 21.64453125 C-3.44373146 21.60600718 -5.2211251 21.46000514 -8.42773438 19.32226562 C-8.70344044 16.40511761 -8.79999048 13.73358302 -8.74023438 10.82226562 C-8.74345703 10.03722656 -8.74667969 9.2521875 -8.75 8.44335938 C-8.67851039 0.86546044 -6.95199393 0.06222289 0 0 Z " fill="#022E52" transform="translate(128.427734375,123.677734375)"/>
<path d="M0 0 C0.79341797 -0.00257813 1.58683594 -0.00515625 2.40429688 -0.0078125 C3.64083008 0.00378906 3.64083008 0.00378906 4.90234375 0.015625 C5.73056641 0.00789062 6.55878906 0.00015625 7.41210938 -0.0078125 C8.20423828 -0.00523437 8.99636719 -0.00265625 9.8125 0 C10.53703369 0.00225586 11.26156738 0.00451172 12.00805664 0.00683594 C13.83984375 0.265625 13.83984375 0.265625 15.83984375 2.265625 C16.09201493 4.96033791 16.21010259 7.50777624 16.21484375 10.203125 C16.23933594 10.93208984 16.26382813 11.66105469 16.2890625 12.41210938 C16.30650404 15.58356267 16.28082143 17.70387705 14.28515625 20.24609375 C10.88503421 21.66371652 8.01524417 21.66233012 4.33984375 21.640625 C3.03015625 21.64835937 1.72046875 21.65609375 0.37109375 21.6640625 C-3.16015625 21.265625 -3.16015625 21.265625 -5.6015625 20.24609375 C-8.02679378 17.1644089 -7.70034175 13.94948953 -7.59765625 10.203125 C-7.60474609 9.47029297 -7.61183594 8.73746094 -7.61914062 7.98242188 C-7.59375 5.85546875 -7.59375 5.85546875 -7.16015625 2.265625 C-4.10201735 0.22686574 -3.44955616 0.01072361 0 0 Z " fill="#012E51" transform="translate(127.16015625,190.734375)"/>
<path d="M0 0 C0.84175781 -0.00257812 1.68351563 -0.00515625 2.55078125 -0.0078125 C3.87142578 0.00378906 3.87142578 0.00378906 5.21875 0.015625 C6.09917969 0.00789063 6.97960937 0.00015625 7.88671875 -0.0078125 C8.72847656 -0.00523438 9.57023438 -0.00265625 10.4375 0 C11.59668945 0.00338379 11.59668945 0.00338379 12.77929688 0.00683594 C14.71875 0.265625 14.71875 0.265625 16.71875 2.265625 C16.99763734 4.96349305 17.13487731 7.50304221 17.15625 10.203125 C17.18912109 10.93208984 17.22199219 11.66105469 17.25585938 12.41210938 C17.27734375 14.54296875 17.27734375 14.54296875 16.71875 18.265625 C13.11143289 21.69054967 9.4756526 21.67155165 4.65625 21.640625 C3.44839844 21.64835937 2.24054688 21.65609375 0.99609375 21.6640625 C-4.0451086 21.05118689 -4.0451086 21.05118689 -6.28125 18.265625 C-6.63274886 15.42682488 -6.75110818 13.02640401 -6.65625 10.203125 C-6.65496094 9.47029297 -6.65367187 8.73746094 -6.65234375 7.98242188 C-6.55781689 2.26354709 -5.91415573 0.01726401 0 0 Z " fill="#022F52" transform="translate(231.28125,123.734375)"/>
<path d="M0 0 C1.18819336 -0.00386719 1.18819336 -0.00386719 2.40039062 -0.0078125 C3.22861328 -0.00007813 4.05683594 0.00765625 4.91015625 0.015625 C5.73451172 0.00789063 6.55886719 0.00015625 7.40820312 -0.0078125 C8.20162109 -0.00523438 8.99503906 -0.00265625 9.8125 0 C10.90099243 0.00338379 10.90099243 0.00338379 12.01147461 0.00683594 C13.97265625 0.265625 13.97265625 0.265625 16.97265625 2.265625 C17.33139356 5.01295486 17.48232169 7.45572234 17.47265625 10.203125 C17.50101563 10.93208984 17.529375 11.66105469 17.55859375 12.41210938 C17.56640625 14.54296875 17.56640625 14.54296875 16.97265625 18.265625 C13.36135168 21.68792672 9.73174053 21.67156565 4.91015625 21.640625 C3.70230469 21.64835937 2.49445313 21.65609375 1.25 21.6640625 C-3.79120235 21.05118689 -3.79120235 21.05118689 -6.02734375 18.265625 C-6.37884261 15.42682488 -6.49720193 13.02640401 -6.40234375 10.203125 C-6.40105469 9.47029297 -6.39976562 8.73746094 -6.3984375 7.98242188 C-6.30745904 2.4782249 -5.7804654 0.01799767 0 0 Z " fill="#022F52" transform="translate(196.02734375,123.734375)"/>
<path d="M0 0 C1.19012695 0.0009668 1.19012695 0.0009668 2.40429688 0.00195312 C3.22865234 0.01806641 4.05300781 0.03417969 4.90234375 0.05078125 C5.73056641 0.04755859 6.55878906 0.04433594 7.41210938 0.04101562 C13.57271783 0.09615533 13.57271783 0.09615533 15.83984375 2.36328125 C16.09201493 5.05799416 16.21010259 7.60543249 16.21484375 10.30078125 C16.23933594 11.02974609 16.26382812 11.75871094 16.2890625 12.50976562 C16.30649716 15.67996755 16.28272131 17.80022586 14.28515625 20.33984375 C10.88901599 21.76123153 8.01403914 21.79716492 4.33984375 21.80078125 C3.03015625 21.82011719 1.72046875 21.83945313 0.37109375 21.859375 C-3.16015625 21.36328125 -3.16015625 21.36328125 -5.6015625 19.77734375 C-7.71761216 16.4998533 -7.65879601 14.17704219 -7.59765625 10.30078125 C-7.59636719 9.07230469 -7.59507812 7.84382812 -7.59375 6.578125 C-6.92540608 1.62274622 -4.94191718 -0.02030098 0 0 Z " fill="#023054" transform="translate(267.16015625,123.63671875)"/>
<path d="M0 0 C0.77279297 -0.00338379 1.54558594 -0.00676758 2.34179688 -0.01025391 C3.60443359 -0.01605469 3.60443359 -0.01605469 4.89257812 -0.02197266 C5.77300781 -0.01037109 6.6534375 0.00123047 7.56054688 0.01318359 C8.44097656 0.00158203 9.32140625 -0.01001953 10.22851562 -0.02197266 C11.07027344 -0.01810547 11.91203125 -0.01423828 12.77929688 -0.01025391 C13.93848633 -0.00517822 13.93848633 -0.00517822 15.12109375 0 C17.06054688 0.38818359 17.06054688 0.38818359 19.06054688 3.38818359 C19.39648438 6.60302734 19.39648438 6.60302734 19.43554688 10.32568359 C19.46390625 11.55158203 19.49226563 12.77748047 19.52148438 14.04052734 C19.06054688 17.38818359 19.06054688 17.38818359 17.50585938 19.79833984 C14.10627058 22.00861562 11.58824659 21.91989776 7.56054688 21.88818359 C5.59601563 21.90365234 5.59601563 21.90365234 3.59179688 21.91943359 C0.06054688 21.38818359 0.06054688 21.38818359 -2.38476562 19.79833984 C-4.5012243 16.51729713 -4.40414519 14.20282675 -4.31445312 10.32568359 C-4.3015625 9.09720703 -4.28867188 7.86873047 -4.27539062 6.60302734 C-3.66199268 0.73295171 -3.66199268 0.73295171 0 0 Z " fill="#022F52" transform="translate(158.939453125,123.61181640625)"/>
<path d="M0 0 C0.82822266 0.00128906 1.65644531 0.00257813 2.50976562 0.00390625 C8.65643064 0.09393064 8.65643064 0.09393064 10.9375 2.375 C11.13643799 4.89975716 11.21597435 7.29014749 11.1875 9.8125 C11.19523437 10.49376953 11.20296875 11.17503906 11.2109375 11.87695312 C11.19639434 15.58909442 11.04690418 17.21089372 8.9375 20.375 C5.39623566 21.55542145 2.12654239 21.63479939 -1.5625 21.6875 C-2.23925781 21.71650391 -2.91601562 21.74550781 -3.61328125 21.77539062 C-6.71077544 21.81510209 -8.57995285 21.77518469 -11.0078125 19.76171875 C-12.37334924 16.67155969 -12.4607145 14.24884002 -12.4375 10.875 C-12.44523438 9.7509375 -12.45296875 8.626875 -12.4609375 7.46875 C-11.42737631 -0.55654863 -6.96082169 -0.20681097 0 0 Z " fill="#012E51" transform="translate(167.0625,190.625)"/>
<path d="M0 0 C1.8871875 0.00773437 1.8871875 0.00773437 3.8125 0.015625 C5.070625 0.01046875 6.32875 0.0053125 7.625 0 C10.8125 0.265625 10.8125 0.265625 12.8125 2.265625 C13.06467118 4.96033791 13.18275884 7.50777624 13.1875 10.203125 C13.21199219 10.93208984 13.23648437 11.66105469 13.26171875 12.41210938 C13.27974013 15.68899608 13.28746142 17.71475651 11.1015625 20.25 C8.48126455 21.41258954 6.67257918 21.6348034 3.8125 21.578125 C2.966875 21.57425781 2.12125 21.57039063 1.25 21.56640625 C-1.30287729 21.25138774 -2.97763935 20.54959496 -5.1875 19.265625 C-5.24130578 16.47370295 -5.28107669 13.6828109 -5.3125 10.890625 C-5.32925781 10.0965625 -5.34601563 9.3025 -5.36328125 8.484375 C-5.38085473 6.41070485 -5.29085168 4.33679259 -5.1875 2.265625 C-3.1875 0.265625 -3.1875 0.265625 0 0 Z " fill="#022F52" transform="translate(335.1875,123.734375)"/>
<path d="M0 0 C4.86595022 0.09930511 7.27510129 0.82407394 10.8125 4.25 C13.31312868 6.96929352 15.0122675 9.37831417 16 13 C15.01 12.67 14.02 12.34 13 12 C9.88667752 12.66868314 9.88667752 12.66868314 8.8125 15.0625 C8.544375 15.701875 8.27625 16.34125 8 17 C6.68 16.67 5.36 16.34 4 16 C4 15.34 4 14.68 4 14 C4.66 14 5.32 14 6 14 C5.67 12.68 5.34 11.36 5 10 C6.32 9.67 7.64 9.34 9 9 C9 8.34 9 7.68 9 7 C7.68 7.33 6.36 7.66 5 8 C4.67 9.32 4.34 10.64 4 12 C0.83884224 10.63016497 0.0072908 10.0109362 -2 7 C-1.125 3.3125 -1.125 3.3125 0 0 Z " fill="#032F51" transform="translate(308,299)"/>
<path d="M0 0 C0.66 0.66 1.32 1.32 2 2 C1.61765316 6.87492223 0.4234304 11.35012736 -1 16 C-3.875 15.8125 -3.875 15.8125 -7 15 C-8.1875 12.5625 -8.1875 12.5625 -9 10 C-9.99 9.34 -10.98 8.68 -12 8 C-11.21366078 6.85050412 -10.42073742 5.70551011 -9.625 4.5625 C-9.18414062 3.92441406 -8.74328125 3.28632813 -8.2890625 2.62890625 C-5.92298615 -0.36095386 -3.62974307 -0.27223073 0 0 Z " fill="#043153" transform="translate(407,301)"/>
<path d="M0 0 C0.763125 0.20625 1.52625 0.4125 2.3125 0.625 C2.3125 3.625 2.3125 6.625 2.3125 9.625 C3.3025 10.285 4.2925 10.945 5.3125 11.625 C5.9725 10.305 6.6325 8.985 7.3125 7.625 C8.6325 7.625 9.9525 7.625 11.3125 7.625 C11.3125 8.285 11.3125 8.945 11.3125 9.625 C10.3225 9.955 9.3325 10.285 8.3125 10.625 C8.3125 11.945 8.3125 13.265 8.3125 14.625 C7.6525 14.625 6.9925 14.625 6.3125 14.625 C6.6425 15.615 6.9725 16.605 7.3125 17.625 C6.6525 17.625 5.9925 17.625 5.3125 17.625 C5.3125 16.965 5.3125 16.305 5.3125 15.625 C4.6525 15.625 3.9925 15.625 3.3125 15.625 C3.3125 14.965 3.3125 14.305 3.3125 13.625 C2.6525 13.625 1.9925 13.625 1.3125 13.625 C-1.6875 10.16346154 -1.6875 10.16346154 -1.6875 7.625 C-2.3475 7.625 -3.0075 7.625 -3.6875 7.625 C-5.6875 4.625 -5.6875 4.625 -5.6875 1.625 C-2.6875 -0.375 -2.6875 -0.375 0 0 Z " fill="#163C57" transform="translate(305.6875,298.375)"/>
<path d="M0 0 C3.47132095 1.40929697 4.88093274 2.90605083 6.75 6.125 C7.39195312 7.21167969 7.39195312 7.21167969 8.046875 8.3203125 C8.51867187 9.15175781 8.51867187 9.15175781 9 10 C6.35261084 11.4606285 5.10551666 12 2 12 C1.67 12.66 1.34 13.32 1 14 C-2.465 12.02 -2.465 12.02 -6 10 C-4.75 8.4375 -4.75 8.4375 -3 7 C-0.8125 7.3125 -0.8125 7.3125 1 8 C0.67 5.36 0.34 2.72 0 0 Z " fill="#032F52" transform="translate(285,264)"/>
<path d="M0 0 C2.64 0.66 5.28 1.32 8 2 C8 4.31 8 6.62 8 9 C5.69 9 3.38 9 1 9 C0.67 6.03 0.34 3.06 0 0 Z " fill="#5C9ACA" transform="translate(362,198)"/>
<path d="M0 0 C1.58597696 3.17195391 1.0604155 6.58558772 1 10.0625 C0.95415574 12.71459031 0.9529836 15.34651194 1 18 C3.11925604 20.11925604 7.6196093 19.41831017 10.5625 19.5625 C11.36880859 19.60568359 12.17511719 19.64886719 13.00585938 19.69335938 C15.00368805 19.79975262 17.0018207 19.90040888 19 20 C19 20.33 19 20.66 19 21 C12.4 21.33 5.8 21.66 -1 22 C-1.93161588 17.34192062 -1.96078394 13.4173968 -1.625 8.75 C-1.58117187 8.0178125 -1.53734375 7.285625 -1.4921875 6.53125 C-1.13225446 1.13225446 -1.13225446 1.13225446 0 0 Z " fill="#579ED6" transform="translate(190,158)"/>
<path d="M0 0 C1.9453125 -0.29296875 1.9453125 -0.29296875 4.125 -0.1875 C5.40375 -0.125625 6.6825 -0.06375 8 0 C8.33 0.99 8.66 1.98 9 3 C8.01 3 7.02 3 6 3 C6 2.34 6 1.68 6 1 C4.68 1 3.36 1 2 1 C2.04125 2.051875 2.0825 3.10375 2.125 4.1875 C2.00852125 7.74010173 1.52791932 9.84866641 0 13 C-0.33 13 -0.66 13 -1 13 C-1.22245393 11.39773045 -1.42746669 9.79303233 -1.625 8.1875 C-1.74101562 7.29417969 -1.85703125 6.40085938 -1.9765625 5.48046875 C-2 3 -2 3 0 0 Z " fill="#4E91C5" transform="translate(340,219)"/>
<path d="M0 0 C1.50559539 1.96382007 2.89131683 3.78263366 4 6 C4.66 6.33 5.32 6.66 6 7 C6 7.66 6 8.32 6 9 C6.33 9.66 6.66 10.32 7 11 C6.67 11.66 6.34 12.32 6 13 C6.66 13 7.32 13 8 13 C7.67 14.32 7.34 15.64 7 17 C3.66875017 14.77916678 3.22600502 13.7997906 1.8125 10.1875 C1.46832031 9.33542969 1.12414062 8.48335938 0.76953125 7.60546875 C-0.02080421 4.92956139 -0.14437811 2.77305541 0 0 Z " fill="#3D5568" transform="translate(266,248)"/>
<path d="M0 0 C2.49361571 1.20381448 4.68143083 2.45428722 7 4 C7.66 2.68 8.32 1.36 9 0 C10.32 0 11.64 0 13 0 C13 0.66 13 1.32 13 2 C12.01 2.33 11.02 2.66 10 3 C10 4.32 10 5.64 10 7 C9.34 7 8.68 7 8 7 C8.33 7.99 8.66 8.98 9 10 C8.34 10 7.68 10 7 10 C7 9.34 7 8.68 7 8 C6.34 8 5.68 8 5 8 C5 7.34 5 6.68 5 6 C4.34 6 3.68 6 3 6 C0 2.53846154 0 2.53846154 0 0 Z " fill="#183D5A" transform="translate(304,306)"/>
<path d="M0 0 C1.0219043 0.05317383 1.0219043 0.05317383 2.06445312 0.10742188 C5.68599564 0.34507452 7.47880567 0.63170378 10.5625 2.6875 C6.77599825 4.58075087 1.87758409 3.71730434 -2.31640625 3.6484375 C-6.5085661 3.47756557 -6.5085661 3.47756557 -10.4375 4.6875 C-10.0625 2.75 -10.0625 2.75 -9.4375 0.6875 C-6.38580791 -0.83834604 -3.31637914 -0.22774758 0 0 Z " fill="#4A8CC0" transform="translate(306.4375,121.3125)"/>
<path d="M0 0 C4.68277071 0.51084771 7.65803381 2.68908494 11.4375 5.375 C10.4475 5.87 10.4475 5.87 9.4375 6.375 C8.4475 5.715 7.4575 5.055 6.4375 4.375 C5.1175 4.375 3.7975 4.375 2.4375 4.375 C2.4375 3.715 2.4375 3.055 2.4375 2.375 C0.45258358 2.64176204 0.45258358 2.64176204 -1.5625 3.375 C-1.8925 4.365 -2.2225 5.355 -2.5625 6.375 C-3.2225 6.375 -3.8825 6.375 -4.5625 6.375 C-3.51047688 0.51372832 -3.51047688 0.51372832 0 0 Z " fill="#5497CB" transform="translate(283.5625,245.625)"/>
<path d="M0 0 C0.74958984 0.10441406 1.49917969 0.20882812 2.27148438 0.31640625 C4.11999204 0.5754328 5.96647432 0.84883966 7.8125 1.125 C7.8125 1.455 7.8125 1.785 7.8125 2.125 C6.70390625 2.16238281 5.5953125 2.19976562 4.453125 2.23828125 C2.98955026 2.30395448 1.52601009 2.37040135 0.0625 2.4375 C-0.66710937 2.46005859 -1.39671875 2.48261719 -2.1484375 2.50585938 C-6.39320619 2.71809781 -9.101358 3.09570799 -12.1875 6.125 C-11.875 3.75 -11.875 3.75 -11.1875 1.125 C-7.23979304 -1.50680464 -4.44769851 -0.6758948 0 0 Z " fill="#4E90C5" transform="translate(166.1875,154.875)"/>
<path d="M0 0 C2.54650762 2.54650762 2.33766436 3.77731829 2.5625 7.3125 C2.80646516 10.96201964 3.2122259 14.42571915 4 18 C3.01 17.67 2.02 17.34 1 17 C-0.53266582 13.93466836 -0.10276471 10.73245728 -0.0625 7.375 C-0.05798828 6.66859375 -0.05347656 5.9621875 -0.04882812 5.234375 C-0.03703875 3.48954725 -0.01910324 1.744763 0 0 Z " fill="#033662" transform="translate(155,160)"/>
<path d="M0 0 C1.98 0.99 3.96 1.98 6 3 C6.66 2.34 7.32 1.68 8 1 C7.79375 1.78375 7.5875 2.5675 7.375 3.375 C7.25125 4.24125 7.1275 5.1075 7 6 C7.66 6.66 8.32 7.32 9 8 C9.33 8.99 9.66 9.98 10 11 C9.01 11 8.02 11 7 11 C7 10.34 7 9.68 7 9 C6.34 9 5.68 9 5 9 C2.82796 6.03812728 1.16438003 3.49314009 0 0 Z " fill="#52677E" transform="translate(278,273)"/>
<path d="M0 0 C-0.99 0.66 -1.98 1.32 -3 2 C-3.79798218 4.41607417 -3.79798218 4.41607417 -4.1875 7.125 C-4.34605469 8.03507813 -4.50460937 8.94515625 -4.66796875 9.8828125 C-4.77753906 10.58148438 -4.88710938 11.28015625 -5 12 C-7.40745113 9.86004344 -7.95708042 9.34335664 -8.375 6 C-8 3 -8 3 -6.8125 1.125 C-4.43963721 -0.34781139 -2.74086056 -0.22223194 0 0 Z " fill="#4F91C5" transform="translate(369,219)"/>
<path d="M0 0 C0.94552734 0.16242188 0.94552734 0.16242188 1.91015625 0.328125 C2.57015625 1.318125 3.23015625 2.308125 3.91015625 3.328125 C0.43692101 4.48587008 -2.44796674 4.328125 -6.08984375 4.328125 C-7.07984375 4.823125 -7.07984375 4.823125 -8.08984375 5.328125 C-6.84981688 -0.16342256 -5.67512942 0.20599381 0 0 Z " fill="#5296CA" transform="translate(311.08984375,169.671875)"/>
<path d="M0 0 C6.50313209 -0.46450943 10.4174808 0.67424388 16 4 C15.34 4.66 14.68 5.32 14 6 C10.5625 5.1875 10.5625 5.1875 7 4 C6.67 3.01 6.34 2.02 6 1 C4.02 1 2.04 1 0 1 C0 0.67 0 0.34 0 0 Z " fill="#798B96" transform="translate(384,209)"/>
<path d="M0 0 C0.33 0 0.66 0 1 0 C1.02694851 1.95825873 1.04637218 3.91662226 1.0625 5.875 C1.07410156 6.96554688 1.08570313 8.05609375 1.09765625 9.1796875 C1 12 1 12 0 14 C-0.99 13.67 -1.98 13.34 -3 13 C-2.69128878 11.20767663 -2.37790936 9.41615679 -2.0625 7.625 C-1.88847656 6.62726563 -1.71445312 5.62953125 -1.53515625 4.6015625 C-1 2 -1 2 0 0 Z " fill="#063964" transform="translate(318,128)"/>
<path d="M0 0 C4.29 0.33 8.58 0.66 13 1 C13 1.66 13 2.32 13 3 C8.38 3 3.76 3 -1 3 C-0.67 2.01 -0.34 1.02 0 0 Z " fill="#083D65" transform="translate(301,142)"/>
<path d="M0 0 C0 0.66 0 1.32 0 2 C-2.75 4.6875 -2.75 4.6875 -6 7 C-8.203125 6.64453125 -8.203125 6.64453125 -10 6 C-9.09650406 4.98808455 -8.17659153 3.99081074 -7.25 3 C-6.48429687 2.1646875 -6.48429687 2.1646875 -5.703125 1.3125 C-4 0 -4 0 0 0 Z " fill="#41586C" transform="translate(105,98)"/>
<path d="M0 0 C0.99 0 1.98 0 3 0 C2.88490339 1.41750563 2.75746342 2.83401169 2.625 4.25 C2.55539062 5.03890625 2.48578125 5.8278125 2.4140625 6.640625 C2 9 2 9 0 13 C0 8.71 0 4.42 0 0 Z " fill="#458ABD" transform="translate(283,161)"/>
<path d="M0 0 C0.66 0.66 1.32 1.32 2 2 C1.625 5.625 1.625 5.625 1 9 C0.34 9 -0.32 9 -1 9 C-1.33 9.66 -1.66 10.32 -2 11 C-2.33 9.02 -2.66 7.04 -3 5 C-2.01 4.67 -1.02 4.34 0 4 C0 2.68 0 1.36 0 0 Z " fill="#314A5E" transform="translate(413,294)"/>
<path d="M0 0 C0.99 0.99 1.98 1.98 3 3 C2.01 3.495 2.01 3.495 1 4 C1 4.99 1 5.98 1 7 C-0.9375 6.6875 -0.9375 6.6875 -3 6 C-3.33 5.01 -3.66 4.02 -4 3 C-2.68 2.67 -1.36 2.34 0 2 C0 1.34 0 0.68 0 0 Z " fill="#032B4A" transform="translate(379,327)"/>
<path d="M0 0 C2 3.75 2 3.75 2 6 C-0.97 5.505 -0.97 5.505 -4 5 C-4 3.68 -4 2.36 -4 1 C-2.68 0.67 -1.36 0.34 0 0 Z " fill="#3A576E" transform="translate(337,328)"/>
<path d="M0 0 C0.33 0 0.66 0 1 0 C2.125 6.75 2.125 6.75 1 9 C-0.65 8.67 -2.3 8.34 -4 8 C-4 7.01 -4 6.02 -4 5 C-3.01 5 -2.02 5 -1 5 C-0.67 3.35 -0.34 1.7 0 0 Z " fill="#27465C" transform="translate(371,191)"/>
<path d="M0 0 C0.99 0.99 1.98 1.98 3 3 C2.34 3 1.68 3 1 3 C-0.61064629 6.65079826 -1.44894091 10.0507432 -2 14 C-2.33 14 -2.66 14 -3 14 C-3.08153933 12.41753293 -3.13943557 10.83383727 -3.1875 9.25 C-3.22230469 8.36828125 -3.25710938 7.4865625 -3.29296875 6.578125 C-2.94923684 3.55328417 -1.99772541 2.24416398 0 0 Z " fill="#083C68" transform="translate(298,124)"/>
<path d="M0 0 C-0.66 1.65 -1.32 3.3 -2 5 C-3.32 5 -4.64 5 -6 5 C-6.33 4.01 -6.66 3.02 -7 2 C-4.35261084 0.5393715 -3.10551666 0 0 0 Z " fill="#223E53" transform="translate(405,316)"/>
<path d="M0 0 C1.65 0 3.3 0 5 0 C5.66 2.97 6.32 5.94 7 9 C6.34 9 5.68 9 5 9 C3.35 6.03 1.7 3.06 0 0 Z " fill="#5094C9" transform="translate(321,162)"/>
<path d="M0 0 C1.50559539 1.96382007 2.89131683 3.78263366 4 6 C4.66 6.33 5.32 6.66 6 7 C4.68 8.32 3.36 9.64 2 11 C0.57741188 7.17679443 -0.24042276 4.08718695 0 0 Z " fill="#5E7789" transform="translate(266,248)"/>
<path d="M0 0 C0.33 0 0.66 0 1 0 C1.33 4.62 1.66 9.24 2 14 C0.35 14.66 -1.3 15.32 -3 16 C-3 15.34 -3 14.68 -3 14 C-2.34 13.67 -1.68 13.34 -1 13 C-0.53045739 9.95418731 -0.53045739 9.95418731 -0.375 6.4375 C-0.30023438 5.23996094 -0.22546875 4.04242188 -0.1484375 2.80859375 C-0.09945312 1.88175781 -0.05046875 0.95492187 0 0 Z " fill="#4480B1" transform="translate(143,163)"/>
<path d="M0 0 C0.66 0 1.32 0 2 0 C2 0.99 2 1.98 2 3 C2.99 3.33 3.98 3.66 5 4 C3.75 5.5625 3.75 5.5625 2 7 C-0.1875 6.6875 -0.1875 6.6875 -2 6 C-1.67 5.01 -1.34 4.02 -1 3 C-0.34 3 0.32 3 1 3 C0.67 2.01 0.34 1.02 0 0 Z " fill="#0C3659" transform="translate(104,97)"/>
<path d="M0 0 C0.99 0 1.98 0 3 0 C3.33 1.98 3.66 3.96 4 6 C1.525 5.01 1.525 5.01 -1 4 C-1 1 -1 1 0 0 Z " fill="#74A6CB" transform="translate(265,238)"/>
<path d="M0 0 C0.6875 1.8125 0.6875 1.8125 1 4 C-0.4375 5.75 -0.4375 5.75 -2 7 C-2.99 6.34 -3.98 5.68 -5 5 C-5 4.34 -5 3.68 -5 3 C-2.5 1.375 -2.5 1.375 0 0 Z " fill="#38536E" transform="translate(318,313)"/>
<path d="M0 0 C3.82946843 1.45255699 5.12050295 3.42895561 7 7 C6.01 7.495 6.01 7.495 5 8 C5 7.34 5 6.68 5 6 C4.34 6 3.68 6 3 6 C0 2.53846154 0 2.53846154 0 0 Z " fill="#57697B" transform="translate(304,306)"/>
<path d="M0 0 C0 0.99 0 1.98 0 3 C-2.63904371 4.41377341 -5.07120629 5.37240135 -8 6 C-5.51047079 3.33264727 -3.36591866 1.44253657 0 0 Z " fill="#03355E" transform="translate(303,158)"/>
<path d="M0 0 C1.8125 0.125 1.8125 0.125 4 1 C5.75 4.0625 5.75 4.0625 7 7 C6.34 7 5.68 7 5 7 C5 6.34 5 5.68 5 5 C4.360625 4.731875 3.72125 4.46375 3.0625 4.1875 C1 3 1 3 0 0 Z " fill="#546776" transform="translate(95,232)"/>
<path d="M0 0 C1.65 0 3.3 0 5 0 C4.34 1.32 3.68 2.64 3 4 C2.01 4 1.02 4 0 4 C0 2.68 0 1.36 0 0 Z " fill="#072C47" transform="translate(378,227)"/>
<path d="M0 0 C2.625 0.9375 2.625 0.9375 5 2 C5 3.32 5 4.64 5 6 C4.01 5.67 3.02 5.34 2 5 C1.67 4.34 1.34 3.68 1 3 C0.01 2.34 -0.98 1.68 -2 1 C-1.34 0.67 -0.68 0.34 0 0 Z " fill="#5498CD" transform="translate(280,155)"/>
<path d="M0 0 C0.33 0 0.66 0 1 0 C1 3.63 1 7.26 1 11 C-0.32 11.33 -1.64 11.66 -3 12 C-2.690625 11.505 -2.38125 11.01 -2.0625 10.5 C-0.58355618 7.02013219 -0.37597149 3.75971491 0 0 Z " fill="#5398CD" transform="translate(214,132)"/>
<path d="M0 0 C1.65 1.65 3.3 3.3 5 5 C3.35 5.66 1.7 6.32 0 7 C0 4.69 0 2.38 0 0 Z " fill="#063960" transform="translate(314,300)"/>
<path d="M0 0 C2.31 0.66 4.62 1.32 7 2 C6.34 2.66 5.68 3.32 5 4 C2.375 3.625 2.375 3.625 0 3 C0 2.01 0 1.02 0 0 Z " fill="#053561" transform="translate(312,267)"/>
<path d="M0 0 C3 2 3 2 3.6875 5.125 C3.8421875 6.548125 3.8421875 6.548125 4 8 C3.01 7.67 2.02 7.34 1 7 C0.67 4.69 0.34 2.38 0 0 Z " fill="#6B7E89" transform="translate(369,104)"/>
</svg>
